<svg width="33" height="29" viewBox="0 0 33 29" fill="none" xmlns="http://www.w3.org/2000/svg">
<path d="M30 25.05L25.5 20.55L27.6 18.45L32.1 22.95L30 25.05ZM24.6 7.05L22.5 4.95L27 0.45L29.1 2.55L24.6 7.05ZM7.5 7.05L3 2.55L5.1 0.45L9.6 4.95L7.5 7.05ZM2.1 25.05L0 22.95L4.5 18.45L6.6 20.55L2.1 25.05ZM11.325 22.2375L16.05 19.3875L20.775 22.275L19.5375 16.875L23.7 13.275L18.225 12.7875L16.05 7.6875L13.875 12.75L8.4 13.2375L12.5625 16.875L11.325 22.2375ZM6.7875 28.5L9.225 17.9625L1.05 10.875L11.85 9.9375L16.05 0L20.25 9.9375L31.05 10.875L22.875 17.9625L25.3125 28.5L16.05 22.9125L6.7875 28.5Z" fill="white"/>
</svg>
