<svg width="27" height="27" viewBox="0 0 27 27" fill="none" xmlns="http://www.w3.org/2000/svg">
<path d="M11.4667 26.6667C10.3333 26.6667 9.47222 26.3278 8.88333 25.65C8.29444 24.9722 8 24.2 8 23.3333C8 22.7556 8.12778 22.1944 8.38333 21.65C8.63889 21.1056 9.03333 20.6556 9.56667 20.3C10.0556 19.9889 10.45 19.5889 10.75 19.1C11.05 18.6111 11.2556 18.0889 11.3667 17.5333L10.9667 17.3333C10.8333 17.2667 10.7111 17.1889 10.6 17.1L7.53333 18.2C7.15556 18.3333 6.78889 18.4444 6.43333 18.5333C6.07778 18.6222 5.71111 18.6667 5.33333 18.6667C3.93333 18.6667 2.69444 18.0556 1.61667 16.8333C0.538889 15.6111 0 13.8222 0 11.4667C0 10.3333 0.338889 9.47222 1.01667 8.88333C1.69444 8.29444 2.45556 8 3.3 8C3.87778 8 4.44444 8.12778 5 8.38333C5.55556 8.63889 6.01111 9.03333 6.36667 9.56667C6.67778 10.0556 7.07778 10.45 7.56667 10.75C8.05556 11.05 8.57778 11.2556 9.13333 11.3667L9.33333 10.9667C9.4 10.8333 9.47778 10.7111 9.56667 10.6L8.46667 7.53333C8.33333 7.15556 8.22222 6.78889 8.13333 6.43333C8.04444 6.07778 8 5.72222 8 5.36667C8 3.94444 8.61111 2.69444 9.83333 1.61667C11.0556 0.538889 12.8444 0 15.2 0C16.3333 0 17.1944 0.338889 17.7833 1.01667C18.3722 1.69444 18.6667 2.45556 18.6667 3.3C18.6667 3.87778 18.5389 4.44444 18.2833 5C18.0278 5.55556 17.6333 6.01111 17.1 6.36667C16.6111 6.67778 16.2167 7.07778 15.9167 7.56667C15.6167 8.05556 15.4111 8.57778 15.3 9.13333L15.7 9.33333C15.8333 9.4 15.9556 9.47778 16.0667 9.56667L19.1333 8.43333C19.5111 8.3 19.8722 8.19444 20.2167 8.11667C20.5611 8.03889 20.9222 8 21.3 8C23.1 8 24.4444 8.74444 25.3333 10.2333C26.2222 11.7222 26.6667 13.3778 26.6667 15.2C26.6667 16.3333 26.3111 17.1944 25.6 17.7833C24.8889 18.3722 24.1 18.6667 23.2333 18.6667C22.6778 18.6667 22.1389 18.5389 21.6167 18.2833C21.0944 18.0278 20.6556 17.6333 20.3 17.1C19.9889 16.6111 19.5889 16.2167 19.1 15.9167C18.6111 15.6167 18.0889 15.4111 17.5333 15.3L17.3333 15.7C17.2667 15.8333 17.1889 15.9556 17.1 16.0667L18.2 19.1333C18.3333 19.4889 18.4444 19.8278 18.5333 20.15C18.6222 20.4722 18.6667 20.8111 18.6667 21.1667C18.6889 22.6111 18.0889 23.8889 16.8667 25C15.6444 26.1111 13.8444 26.6667 11.4667 26.6667ZM13.3333 15.3333C13.8889 15.3333 14.3611 15.1389 14.75 14.75C15.1389 14.3611 15.3333 13.8889 15.3333 13.3333C15.3333 12.7778 15.1389 12.3056 14.75 11.9167C14.3611 11.5278 13.8889 11.3333 13.3333 11.3333C12.7778 11.3333 12.3056 11.5278 11.9167 11.9167C11.5278 12.3056 11.3333 12.7778 11.3333 13.3333C11.3333 13.8889 11.5278 14.3611 11.9167 14.75C12.3056 15.1389 12.7778 15.3333 13.3333 15.3333ZM11.8 8.93333C11.9333 8.88889 12.0722 8.85 12.2167 8.81667C12.3611 8.78333 12.5 8.75556 12.6333 8.73333C12.8111 7.8 13.15 6.93333 13.65 6.13333C14.15 5.33333 14.8111 4.66667 15.6333 4.13333C15.7444 4.04444 15.8333 3.93333 15.9 3.8C15.9667 3.66667 16 3.5 16 3.3C16 3.12222 15.9333 2.97222 15.8 2.85C15.6667 2.72778 15.4667 2.66667 15.2 2.66667C14.3556 2.66667 13.4 2.85 12.3333 3.21667C11.2667 3.58333 10.7111 4.3 10.6667 5.36667C10.6667 5.56667 10.6944 5.75556 10.75 5.93333C10.8056 6.11111 10.8556 6.27778 10.9 6.43333L11.8 8.93333ZM5.33333 16C5.64444 16 6.01111 15.9222 6.43333 15.7667L8.93333 14.8667C8.88889 14.7333 8.85 14.5944 8.81667 14.45C8.78333 14.3056 8.75556 14.1667 8.73333 14.0333C7.8 13.8556 6.93333 13.5167 6.13333 13.0167C5.33333 12.5167 4.66667 11.8556 4.13333 11.0333C4.04444 10.9222 3.92778 10.8333 3.78333 10.7667C3.63889 10.7 3.47778 10.6667 3.3 10.6667C3.1 10.6667 2.94444 10.7333 2.83333 10.8667C2.72222 11 2.66667 11.2 2.66667 11.4667C2.66667 12.6667 2.89444 13.7222 3.35 14.6333C3.80556 15.5444 4.46667 16 5.33333 16ZM11.4667 24C12.5111 24 13.5389 23.7889 14.55 23.3667C15.5611 22.9444 16.0444 22.2111 16 21.1667C16 20.9889 15.9722 20.8222 15.9167 20.6667C15.8611 20.5111 15.8111 20.3667 15.7667 20.2333L14.8667 17.7333C14.7333 17.7778 14.5944 17.8167 14.45 17.85C14.3056 17.8833 14.1667 17.9111 14.0333 17.9333C13.8556 18.8667 13.5167 19.7333 13.0167 20.5333C12.5167 21.3333 11.8556 22 11.0333 22.5333C10.9222 22.6222 10.8278 22.7389 10.75 22.8833C10.6722 23.0278 10.6444 23.1778 10.6667 23.3333C10.6889 23.5111 10.7556 23.6667 10.8667 23.8C10.9778 23.9333 11.1778 24 11.4667 24ZM23.2333 16C23.4333 16 23.6111 15.9444 23.7667 15.8333C23.9222 15.7222 24 15.5111 24 15.2C24 14.3556 23.8222 13.3944 23.4667 12.3167C23.1111 11.2389 22.3889 10.6889 21.3 10.6667C21.1 10.6667 20.9111 10.6889 20.7333 10.7333C20.5556 10.7778 20.3889 10.8222 20.2333 10.8667L17.7333 11.8C17.7778 11.9333 17.8167 12.0722 17.85 12.2167C17.8833 12.3611 17.9111 12.5 17.9333 12.6333C18.8667 12.8111 19.7333 13.15 20.5333 13.65C21.3333 14.15 22 14.8111 22.5333 15.6333C22.6 15.7444 22.7 15.8333 22.8333 15.9C22.9667 15.9667 23.1 16 23.2333 16Z" fill="#C90017"/>
</svg>
