<svg width="21" height="30" viewBox="0 0 21 30" fill="none" xmlns="http://www.w3.org/2000/svg">
<path d="M18 30H3C2.175 30 1.46875 29.7063 0.88125 29.1188C0.29375 28.5313 0 27.825 0 27V3C0 2.175 0.29375 1.46875 0.88125 0.88125C1.46875 0.29375 2.175 0 3 0H18C18.825 0 19.5312 0.29375 20.1188 0.88125C20.7063 1.46875 21 2.175 21 3V27C21 27.825 20.7063 28.5313 20.1188 29.1188C19.5312 29.7063 18.825 30 18 30ZM18 27V3H3V27H18ZM10.5 10.5C11.325 10.5 12.0312 10.2063 12.6188 9.61875C13.2063 9.03125 13.5 8.325 13.5 7.5C13.5 6.675 13.2063 5.96875 12.6188 5.38125C12.0312 4.79375 11.325 4.5 10.5 4.5C9.675 4.5 8.96875 4.79375 8.38125 5.38125C7.79375 5.96875 7.5 6.675 7.5 7.5C7.5 8.325 7.79375 9.03125 8.38125 9.61875C8.96875 10.2063 9.675 10.5 10.5 10.5ZM10.5 25.5C12.15 25.5 13.5625 24.9125 14.7375 23.7375C15.9125 22.5625 16.5 21.15 16.5 19.5C16.5 17.85 15.9125 16.4375 14.7375 15.2625C13.5625 14.0875 12.15 13.5 10.5 13.5C8.85 13.5 7.4375 14.0875 6.2625 15.2625C5.0875 16.4375 4.5 17.85 4.5 19.5C4.5 21.15 5.0875 22.5625 6.2625 23.7375C7.4375 24.9125 8.85 25.5 10.5 25.5ZM10.5 22.5C9.675 22.5 8.96875 22.2063 8.38125 21.6188C7.79375 21.0312 7.5 20.325 7.5 19.5C7.5 18.675 7.79375 17.9688 8.38125 17.3813C8.96875 16.7938 9.675 16.5 10.5 16.5C11.325 16.5 12.0312 16.7938 12.6188 17.3813C13.2063 17.9688 13.5 18.675 13.5 19.5C13.5 20.325 13.2063 21.0312 12.6188 21.6188C12.0312 22.2063 11.325 22.5 10.5 22.5Z" fill="white"/>
</svg>
