<svg width="25" height="15" viewBox="0 0 25 15" fill="none" xmlns="http://www.w3.org/2000/svg">
<path d="M24.4268 1.0158C24.6015 0.42976 24.4268 0 23.6009 0H20.8649C20.1687 0 19.8506 0.371787 19.6759 0.780122C19.6759 0.780122 18.2849 4.20686 16.3136 6.42875C15.6774 7.07528 15.3867 7.27945 15.0398 7.27945C14.8664 7.27945 14.6144 7.07528 14.6144 6.48925V1.0158C14.6144 0.312553 14.4135 0 13.8334 0H9.53417C9.10001 0 8.83801 0.325156 8.83801 0.635188C8.83801 1.30062 9.82362 1.45438 9.92467 3.32969V7.39792C9.92467 8.28894 9.76623 8.45152 9.4169 8.45152C8.48993 8.45152 6.23427 5.01218 4.89559 1.07503C4.63484 0.310032 4.3716 0.0012608 3.67294 0.0012608H0.938197C0.15595 0.0012608 0 0.373047 0 0.781382C0 1.51487 0.926968 5.14451 4.31795 9.94497C6.5786 13.223 9.76124 15 12.6607 15C14.3986 15 14.6132 14.6055 14.6132 13.925V11.4472C14.6132 10.6583 14.7791 10.4995 15.3293 10.4995C15.7335 10.4995 16.4297 10.7062 18.0528 12.2853C19.9067 14.1581 20.2136 14.9987 21.2554 14.9987H23.9901C24.7711 14.9987 25.1616 14.6043 24.9371 13.8254C24.6913 13.0503 23.8055 11.9224 22.6303 10.5877C21.9915 9.8265 21.0371 9.00731 20.7464 8.59771C20.3409 8.06965 20.4582 7.8365 20.7464 7.36767C20.7476 7.36893 24.08 2.62771 24.4268 1.0158Z" fill="white"/>
</svg>
