<svg width="27" height="33" viewBox="0 0 27 33" fill="none" xmlns="http://www.w3.org/2000/svg">
<path d="M13.5 6C12.875 6 12.3438 5.78125 11.9062 5.34375C11.4688 4.90625 11.25 4.375 11.25 3.75C11.25 3.225 11.4313 2.6625 11.7938 2.0625C12.1563 1.4625 12.725 0.775 13.5 0C14.275 0.775 14.8438 1.4625 15.2063 2.0625C15.5688 2.6625 15.75 3.225 15.75 3.75C15.75 4.375 15.5313 4.90625 15.0938 5.34375C14.6563 5.78125 14.125 6 13.5 6ZM6 6C5.375 6 4.84375 5.78125 4.40625 5.34375C3.96875 4.90625 3.75 4.375 3.75 3.75C3.75 3.225 3.93125 2.6625 4.29375 2.0625C4.65625 1.4625 5.225 0.775 6 0C6.775 0.775 7.34375 1.4625 7.70625 2.0625C8.06875 2.6625 8.25 3.225 8.25 3.75C8.25 4.375 8.03125 4.90625 7.59375 5.34375C7.15625 5.78125 6.625 6 6 6ZM21 6C20.375 6 19.8438 5.78125 19.4062 5.34375C18.9688 4.90625 18.75 4.375 18.75 3.75C18.75 3.225 18.9313 2.6625 19.2938 2.0625C19.6562 1.4625 20.225 0.775 21 0C21.775 0.775 22.3438 1.4625 22.7063 2.0625C23.0688 2.6625 23.25 3.225 23.25 3.75C23.25 4.375 23.0312 4.90625 22.5938 5.34375C22.1562 5.78125 21.625 6 21 6ZM4.5 30V31.5C4.5 31.925 4.35625 32.2812 4.06875 32.5688C3.78125 32.8563 3.425 33 3 33H1.5C1.075 33 0.71875 32.8563 0.43125 32.5688C0.14375 32.2812 0 31.925 0 31.5V19.5L3.15 10.5C3.3 10.05 3.56875 9.6875 3.95625 9.4125C4.34375 9.1375 4.775 9 5.25 9H21.75C22.225 9 22.6562 9.1375 23.0438 9.4125C23.4313 9.6875 23.7 10.05 23.85 10.5L27 19.5V31.5C27 31.925 26.8563 32.2812 26.5688 32.5688C26.2813 32.8563 25.925 33 25.5 33H24C23.575 33 23.2188 32.8563 22.9313 32.5688C22.6438 32.2812 22.5 31.925 22.5 31.5V30H4.5ZM4.2 16.5H22.8L21.225 12H5.775L4.2 16.5ZM6.75 25.5C7.375 25.5 7.90625 25.2813 8.34375 24.8438C8.78125 24.4063 9 23.875 9 23.25C9 22.625 8.78125 22.0938 8.34375 21.6562C7.90625 21.2188 7.375 21 6.75 21C6.125 21 5.59375 21.2188 5.15625 21.6562C4.71875 22.0938 4.5 22.625 4.5 23.25C4.5 23.875 4.71875 24.4063 5.15625 24.8438C5.59375 25.2813 6.125 25.5 6.75 25.5ZM20.25 25.5C20.875 25.5 21.4062 25.2813 21.8438 24.8438C22.2812 24.4063 22.5 23.875 22.5 23.25C22.5 22.625 22.2812 22.0938 21.8438 21.6562C21.4062 21.2188 20.875 21 20.25 21C19.625 21 19.0938 21.2188 18.6562 21.6562C18.2188 22.0938 18 22.625 18 23.25C18 23.875 18.2188 24.4063 18.6562 24.8438C19.0938 25.2813 19.625 25.5 20.25 25.5ZM3 27H24V19.5H3V27Z" fill="white"/>
</svg>
